<?xml version="1.0" encoding="utf-8"?>
<!-- Generator: Adobe Illustrator 16.0.3, SVG Export Plug-In . SVG Version: 6.00 Build 0)  -->
<!DOCTYPE svg PUBLIC "-//W3C//DTD SVG 1.1//EN" "http://www.w3.org/Graphics/SVG/1.1/DTD/svg11.dtd">
<svg version="1.1" id="Layer_1" xmlns="http://www.w3.org/2000/svg" xmlns:xlink="http://www.w3.org/1999/xlink" x="0px" y="0px"
	 width="617.267px" height="317.824px" viewBox="15.977 146.874 617.267 317.824"
	 enable-background="new 15.977 146.874 617.267 317.824" xml:space="preserve">
<g>
	<g>
		<polygon fill="#DBDBDB" points="318.01,211.23 376.232,211.23 325.183,401.88 266.957,401.88 		"/>
		<path fill="#DBDBDB" d="M321.597,306.553"/>
	</g>
	<path fill="#DBDBDB" d="M19.098,337.568c18.81-70.214,117.491-127.129,220.41-127.129h58.235l-51.097,190.693h-58.23
		l39.444-147.216c-80.584,0-157.851,44.565-172.583,99.542c-14.731,54.972,38.653,99.544,119.241,99.544l-3.135,11.696
		C68.464,464.697,0.283,407.777,19.098,337.568z"/>
	<path fill="#DBDBDB" d="M630.125,274.001c-18.815,70.217-117.503,127.13-220.423,127.13h-58.23l51.097-190.693H460.8
		l-39.438,147.21c80.578,0,157.848-44.559,172.575-99.538c14.729-54.975-38.657-99.543-119.238-99.543l3.131-11.694
		C580.751,146.875,648.927,203.789,630.125,274.001z"/>
</g>
</svg>
